<svg width="89" height="99" viewBox="0 0 89 99" fill="none" xmlns="http://www.w3.org/2000/svg">
<g clip-path="url(#clip0_149_2092)">
<path d="M79.3383 69.7665C73.7316 64.4944 70.5165 56.7887 70.5165 48.6254V37.125C70.5165 22.6095 60.8229 10.5932 48.2665 8.58032V4.12475C48.2665 1.84371 46.6049 0 44.5577 0C42.5112 0 40.8496 1.84371 40.8496 4.12475V8.58032C28.2892 10.5932 18.5996 22.6095 18.5996 37.125V48.6254C18.5996 56.7887 15.3845 64.4944 9.74388 69.799C8.30165 71.1729 7.47461 73.1692 7.47461 75.281C7.47461 79.2622 10.3856 82.5003 13.964 82.5003H75.1515C78.7306 82.5003 81.6415 79.2622 81.6415 75.281C81.6415 73.1692 80.8145 71.1729 79.3383 69.7665Z" fill="#7C9DE1"/>
<path d="M44.5581 99C51.2742 99 56.8924 93.6743 58.1825 86.625H30.9336C32.2244 93.6743 37.8426 99 44.5581 99Z" fill="#7C9DE1"/>
</g>
<defs>
<clipPath id="clip0_149_2092">
<rect width="89" height="99" fill="white"/>
</clipPath>
</defs>
</svg>
